<svg xmlns="http://www.w3.org/2000/svg" xmlns:xlink="http://www.w3.org/1999/xlink" width="1500" zoomAndPan="magnify" viewBox="0 0 1125 449.999984" height="600" preserveAspectRatio="xMidYMid meet" version="1.0"><defs><clipPath id="3070d90986"><path d="M 122.25 234.011719 L 339 234.011719 L 339 450 L 122.25 450 Z M 122.25 234.011719 " clip-rule="nonzero"/></clipPath><clipPath id="a6442fdef7"><path d="M 266.25 202 L 483.398438 202 L 483.398438 417.890625 L 266.25 417.890625 Z M 266.25 202 " clip-rule="nonzero"/></clipPath><clipPath id="dee5f5cf1c"><path d="M 89.367188 89 L 307.5 89 L 307.5 305 L 89.367188 305 Z M 89.367188 89 " clip-rule="nonzero"/></clipPath><clipPath id="003ed3f99a"><path d="M 196 0.289062 L 413 0.289062 L 413 212.261719 L 196 212.261719 Z M 196 0.289062 " clip-rule="nonzero"/></clipPath></defs><rect x="-112.5" width="1350" fill="#ffffff" y="-44.999998" height="539.99998" fill-opacity="1"/><rect x="-112.5" width="1350" fill="#ffffff" y="-44.999998" height="539.99998" fill-opacity="1"/><rect x="-112.5" width="1350" fill="#ffffff" y="-44.999998" height="539.99998" fill-opacity="1"/><rect x="-112.5" width="1350" fill="#ffffff" y="-44.999998" height="539.99998" fill-opacity="1"/><g clip-path="url(#3070d90986)"><path fill="#00bf63" d="M 338.015625 397.351562 C 337.328125 399.074219 336.058594 402.28125 311.792969 410.230469 C 301.257812 413.679688 286.792969 417.707031 280.707031 417.714844 C 279.558594 417.714844 277.875 417.597656 276.488281 416.617188 C 272.40625 413.730469 272.78125 407.132812 273.214844 399.492188 C 273.378906 396.613281 273.628906 392.261719 273.195312 391.042969 C 270.722656 384.039062 265.839844 380.324219 258.273438 379.691406 C 257.171875 379.597656 256.101562 379.554688 255.09375 379.554688 C 248.441406 379.554688 243.933594 381.53125 241.691406 385.433594 C 237.617188 392.511719 240.839844 404.464844 245.558594 412.574219 C 246.300781 413.851562 246.976562 414.972656 247.574219 415.960938 C 250.242188 420.367188 252 423.277344 250.816406 426.613281 C 249.539062 430.203125 246.019531 431.464844 238.300781 434.230469 C 237.289062 434.59375 236.199219 434.984375 235.015625 435.414062 C 226.824219 438.390625 218.617188 441.34375 210.414062 444.296875 C 206.175781 445.820312 193.777344 450.289062 193.777344 450.289062 L 192.359375 446.375 C 191.40625 443.722656 190.269531 439.566406 188.949219 434.75 C 185.480469 422.078125 178.261719 395.714844 170.945312 393.085938 C 170.136719 392.796875 169.382812 392.65625 168.640625 392.65625 C 165.277344 392.65625 161.925781 395.816406 158.382812 399.164062 C 153.867188 403.429688 148.75 408.261719 141.65625 408.261719 C 138.757812 408.261719 135.777344 407.417969 132.804688 405.753906 C 128.230469 403.1875 124.828125 398.417969 123.484375 392.664062 C 122.136719 386.910156 123.042969 381.164062 125.960938 376.898438 C 130.582031 370.136719 136.402344 369.355469 140.375 369.355469 C 142.085938 369.355469 143.773438 369.519531 145.40625 369.667969 C 146.984375 369.820312 148.46875 369.957031 149.917969 369.957031 C 151.671875 369.957031 153.082031 369.746094 154.347656 369.292969 C 157.207031 368.265625 158.960938 366.800781 159.867188 364.691406 C 162.710938 358.058594 157.148438 345.492188 152.679688 335.394531 C 149.996094 329.324219 147.457031 323.589844 146.519531 318.949219 L 146.40625 318.382812 C 145.144531 312.128906 144.511719 308.988281 145.792969 306.105469 C 147.300781 302.722656 150.429688 301.726562 155.175781 300.226562 C 156.851562 299.6875 158.761719 299.082031 161.082031 298.246094 C 163.875 297.246094 167.488281 296.269531 171.3125 295.234375 C 179.792969 292.9375 191.40625 289.796875 195.714844 285.476562 C 200.8125 280.367188 199.164062 277.410156 192.734375 269.589844 C 187.054688 262.675781 179.277344 253.210938 189.101562 241.511719 C 192.878906 237.011719 199.195312 234.214844 205.589844 234.214844 C 210.449219 234.214844 214.90625 235.855469 218.128906 238.832031 C 224.609375 244.800781 223.804688 252.027344 223.15625 257.832031 C 222.78125 261.238281 222.421875 264.449219 223.476562 267.011719 C 224.382812 269.207031 226.246094 271.71875 232.695312 271.71875 C 243.714844 271.71875 260.066406 264.355469 272 258.976562 C 276.417969 256.984375 273.566406 258.015625 276.417969 256.984375 L 277.738281 256.46875 C 282.777344 254.488281 288.457031 257.125 290.191406 262.257812 C 291.074219 264.714844 290.921875 262.878906 292.796875 267.148438 C 303.332031 291.160156 311.207031 311.546875 300.800781 317.792969 C 297.953125 319.503906 294.71875 319.703125 292.535156 319.703125 C 290.886719 319.703125 289.199219 319.570312 287.5625 319.445312 C 285.992188 319.324219 284.367188 319.199219 282.863281 319.199219 C 280.285156 319.199219 278.441406 319.574219 277.058594 320.371094 C 270.375 324.210938 267.257812 332.171875 269.300781 340.175781 C 271.019531 346.914062 276.34375 352.703125 282.238281 354.25 C 283.464844 354.566406 284.621094 354.730469 285.683594 354.730469 C 289.535156 354.730469 292.238281 352.5625 295.664062 349.820312 C 298.371094 347.652344 301.433594 345.191406 305.433594 343.734375 C 308.988281 342.4375 311.242188 341.910156 313.222656 341.910156 C 319.539062 341.910156 321.238281 347.035156 323.207031 352.96875 C 323.664062 354.355469 324.179688 355.925781 324.824219 357.695312 C 325.363281 359.199219 326.726562 362.175781 328.304688 365.625 C 336.566406 383.664062 339.929688 392.527344 338.015625 397.351562 " fill-opacity="1" fill-rule="nonzero"/></g><g clip-path="url(#a6442fdef7)"><path fill="#38b6ff" d="M 483.398438 346.6875 L 479.480469 348.097656 C 477.136719 348.941406 473.613281 349.917969 469.15625 351.15625 C 460.785156 353.476562 449.320312 356.652344 440.148438 360.632812 C 427.21875 366.246094 425.675781 370.503906 425.613281 372.070312 C 425.519531 374.335938 429.289062 379.75 432.039062 383.703125 C 437.480469 391.527344 443.648438 400.386719 440.371094 408.019531 C 438.261719 412.941406 432.835938 416.007812 423.785156 417.402344 C 422.015625 417.679688 420.34375 417.8125 418.820312 417.8125 C 403 417.8125 402.9375 403.820312 402.894531 394.554688 C 402.867188 388.558594 402.835938 382.359375 399.820312 380.027344 C 398.757812 379.203125 396.941406 378.765625 394.570312 378.765625 C 383.921875 378.765625 365.820312 387.070312 353.84375 392.5625 C 349.15625 394.714844 345.109375 396.570312 342.320312 397.578125 L 338.40625 398.988281 L 336.992188 395.078125 C 336.132812 392.683594 335.109375 389.015625 333.8125 384.371094 C 331.539062 376.1875 328.421875 364.984375 324.667969 355.882812 C 319.292969 342.855469 315.40625 340.796875 313.984375 340.515625 C 313.789062 340.476562 313.582031 340.457031 313.363281 340.457031 C 310.203125 340.457031 305.265625 344.167969 300.90625 347.441406 C 295.097656 351.800781 289.09375 356.308594 282.894531 356.308594 C 276.503906 356.308594 271.621094 351.671875 268.394531 342.519531 C 265.839844 335.292969 265.917969 329.78125 268.636719 325.683594 C 272.863281 319.296875 281.683594 318.75 290.214844 318.222656 C 295.976562 317.859375 302.503906 317.453125 304.414062 315.042969 C 309.585938 308.511719 302.90625 294.917969 297.015625 282.925781 C 292.054688 272.828125 287.371094 263.300781 288.0625 255.679688 L 288.300781 253.035156 L 290.792969 252.140625 C 293.390625 251.203125 297.015625 249.621094 301.21875 247.785156 C 313.632812 242.359375 329.078125 235.609375 339.671875 235.609375 C 344.773438 235.609375 348.519531 237.1875 350.808594 240.285156 C 353.675781 244.171875 353.40625 249.085938 353.148438 253.84375 C 352.863281 258.988281 352.597656 263.84375 355.996094 267.164062 C 359.292969 270.382812 363.445312 272.085938 368.007812 272.085938 C 370.347656 272.085938 372.742188 271.644531 375.128906 270.769531 C 382.28125 268.164062 386.746094 262.75 387.382812 255.917969 C 387.867188 250.6875 385.699219 248.09375 382.691406 244.503906 C 380.617188 242.023438 378.265625 239.210938 376.78125 235.296875 C 375 230.617188 374.191406 227.089844 375.660156 224.007812 C 377.308594 220.550781 380.863281 219.375 385.789062 217.75 C 387.214844 217.28125 388.832031 216.746094 390.632812 216.097656 C 392.03125 215.585938 394.945312 214.257812 398.316406 212.726562 C 410.859375 207.015625 421.714844 202.292969 427.445312 202.292969 C 428.664062 202.292969 429.699219 202.492188 430.613281 202.890625 C 434.816406 204.730469 437.789062 211.796875 443.863281 234.386719 C 444.671875 237.382812 445.363281 239.96875 445.761719 241.128906 C 446.261719 242.605469 446.867188 244.105469 447.449219 245.558594 C 450.101562 252.132812 453.730469 261.144531 443.828125 266.414062 C 441.578125 267.609375 439.046875 268.167969 435.863281 268.167969 C 434.113281 268.167969 432.355469 268.003906 430.652344 267.84375 C 428.988281 267.683594 427.410156 267.53125 425.875 267.53125 C 422.800781 267.53125 420.683594 268.152344 418.804688 269.605469 C 413.203125 273.929688 410.941406 282.777344 413.546875 290.179688 C 416.144531 297.566406 423.191406 302.933594 430.300781 302.933594 L 430.554688 302.929688 C 434.613281 302.859375 437.917969 299.652344 441.417969 296.265625 C 444.988281 292.8125 448.675781 289.242188 453.660156 288.886719 C 453.871094 288.871094 454.082031 288.867188 454.292969 288.867188 C 465.445312 288.867188 472.097656 308.878906 479.039062 333.050781 C 480.214844 337.136719 481.222656 340.660156 481.984375 342.769531 L 483.398438 346.6875 " fill-opacity="1" fill-rule="nonzero"/></g><g clip-path="url(#dee5f5cf1c)"><path fill="#ff751f" d="M 303.535156 185.761719 C 298.878906 191.039062 291.027344 191.050781 284.097656 191.0625 C 279.660156 191.066406 275.074219 191.070312 272.386719 192.4375 C 266.300781 195.527344 267.554688 201.507812 272.65625 213.757812 C 273.476562 215.726562 274.253906 217.582031 274.894531 219.367188 C 275.410156 220.808594 276.628906 223.316406 277.921875 225.964844 C 282.988281 236.359375 286.453125 244.121094 284.886719 249.351562 C 282.746094 256.488281 274.828125 258.992188 267.167969 261.414062 C 265.464844 261.953125 263.703125 262.507812 262.070312 263.101562 C 259.917969 263.878906 257.410156 265.007812 254.757812 266.203125 C 248.582031 268.984375 241.589844 272.136719 235.488281 272.421875 C 233.890625 272.496094 232.683594 272.53125 231.691406 272.53125 C 229.09375 272.53125 226.15625 272.363281 224.199219 270.3125 C 222.257812 268.289062 222.371094 265.726562 222.480469 263.246094 C 222.550781 261.695312 222.632812 259.757812 222.378906 257.273438 C 221.070312 244.574219 214.273438 236.996094 204.199219 236.996094 C 197.679688 236.996094 191.445312 240.328125 188.328125 245.488281 C 185.328125 250.433594 185.515625 256.421875 188.855469 262.800781 C 189.347656 263.742188 191.355469 265.703125 192.96875 267.273438 C 197.328125 271.527344 201.835938 275.929688 200.878906 280.921875 C 199.710938 286.945312 191.597656 289.652344 181.914062 292.328125 C 180.523438 292.710938 179.210938 293.074219 178.542969 293.316406 C 176.324219 294.121094 173.878906 295.199219 171.296875 296.332031 C 165.3125 298.964844 159.128906 301.6875 153.195312 302.3125 C 150.089844 302.640625 149.222656 303.335938 148.847656 303.632812 C 148.40625 303.984375 147.371094 304.8125 145.800781 304.8125 C 145.800781 304.8125 145.796875 304.8125 145.796875 304.8125 C 142.941406 304.8125 141.855469 302.445312 141.332031 301.3125 C 140.867188 300.285156 139.992188 298.382812 137.976562 295.054688 C 135.816406 291.472656 134.539062 287.179688 133.308594 283.023438 C 132.765625 281.195312 132.253906 279.472656 131.699219 277.9375 C 131.351562 276.964844 130.519531 275.140625 129.5625 273.027344 C 123.417969 259.496094 120.933594 252.277344 123.417969 247.855469 C 126.46875 242.449219 132.726562 242.449219 134.785156 242.449219 C 136.394531 242.449219 138.054688 242.578125 139.660156 242.699219 C 141.207031 242.816406 142.671875 242.929688 144.039062 242.929688 C 145.3125 242.929688 146.316406 242.828125 147.105469 242.625 C 153.757812 240.898438 158.710938 236.03125 160.351562 229.613281 C 162.003906 223.144531 159.914062 216.390625 154.761719 211.550781 C 151.347656 208.335938 147.757812 206.777344 143.800781 206.777344 C 140.980469 206.777344 137.914062 207.585938 134.679688 209.179688 C 133.714844 209.660156 131.472656 211.964844 129.839844 213.648438 C 125.773438 217.839844 121.941406 221.792969 117.691406 221.792969 L 117.429688 221.789062 C 109.128906 221.464844 103.148438 206.074219 93.652344 173.859375 C 92.535156 170.066406 91.566406 166.796875 91.015625 165.261719 L 89.601562 161.34375 L 93.515625 159.933594 C 97.835938 158.375 103.328125 156.917969 109.144531 155.371094 C 121.648438 152.046875 137.210938 147.910156 143.691406 141.710938 C 146.675781 138.859375 148.179688 136.609375 148.042969 135.203125 C 147.910156 133.820312 146.253906 131.863281 144.339844 129.597656 C 142.476562 127.394531 140.164062 124.644531 138.152344 121.140625 C 134.140625 114.144531 134.152344 105.464844 138.1875 98.5 C 141.605469 92.601562 147.1875 89.21875 153.507812 89.21875 C 156.980469 89.21875 160.511719 90.25 164.003906 92.28125 C 173.34375 97.722656 172.910156 107.171875 172.5625 114.761719 C 172.214844 122.335938 172.4375 125.871094 176.0625 127.878906 C 176.941406 128.363281 178.195312 128.609375 179.796875 128.609375 C 187.363281 128.609375 199.039062 123.28125 207.570312 119.390625 C 210.917969 117.859375 213.804688 116.542969 215.996094 115.75 C 217.980469 115.03125 219.597656 114.355469 221.023438 113.757812 C 223.910156 112.542969 225.996094 111.667969 228.347656 111.667969 C 232.644531 111.667969 235.519531 114.765625 238.09375 117.9375 C 242.371094 123.203125 244.707031 131.933594 246.769531 139.636719 C 247.65625 142.953125 248.488281 146.082031 249.371094 148.503906 C 249.886719 149.933594 250.386719 151.410156 250.878906 152.890625 C 253.917969 161.921875 256.273438 167.835938 261.179688 167.835938 C 262.429688 167.835938 263.902344 167.511719 265.566406 166.867188 C 267.574219 166.085938 269.402344 164.007812 271.335938 161.816406 C 274.152344 158.617188 277.34375 154.996094 282.386719 153.765625 C 283.9375 153.390625 285.519531 153.199219 287.097656 153.199219 C 297.082031 153.199219 305.554688 160.800781 306.800781 170.882812 C 307.621094 177.480469 306.550781 182.347656 303.535156 185.761719 " fill-opacity="1" fill-rule="nonzero"/></g><g clip-path="url(#003ed3f99a)"><path fill="#ff3131" d="M 412.644531 99.28125 C 412.839844 103.902344 408.554688 107.101562 406.035156 108.667969 C 403.011719 114.835938 397.578125 120.179688 392.3125 125.347656 C 389.007812 128.597656 385.878906 131.671875 383.636719 134.675781 C 376.902344 143.683594 376.949219 146.460938 377.125 147.09375 C 377.441406 148.234375 380.847656 149.636719 383.851562 150.871094 C 387.730469 152.46875 392.554688 154.453125 397.265625 157.949219 C 404.347656 163.210938 407.042969 171.648438 404.289062 179.96875 C 401.449219 188.554688 393.71875 194.550781 385.492188 194.550781 C 385.492188 194.550781 385.488281 194.550781 385.488281 194.550781 C 381.957031 194.550781 378.519531 193.5 375.273438 191.429688 C 369.285156 187.609375 366.367188 181.753906 364.023438 177.050781 C 361.671875 172.339844 360.445312 170.277344 358.59375 170.277344 C 357.425781 170.277344 355.179688 170.832031 351.09375 173.492188 C 345.386719 177.210938 339.667969 185.042969 334.628906 191.953125 C 332.152344 195.34375 329.816406 198.542969 327.511719 201.265625 C 321.773438 208.035156 318.011719 212.191406 313.140625 212.191406 C 309.132812 212.191406 306.191406 209.578125 301.304688 205.253906 C 299.917969 204.027344 298.347656 202.632812 296.523438 201.09375 C 295.304688 200.066406 293.117188 198.539062 290.585938 196.765625 C 280.417969 189.644531 272.496094 183.730469 270.753906 177.894531 C 267.78125 167.945312 274.269531 165.390625 278.152344 163.871094 C 280.007812 163.140625 281.933594 162.382812 283.660156 161.003906 C 290.339844 155.660156 293.953125 147.734375 292.855469 140.816406 C 291.929688 134.957031 287.804688 130.480469 280.925781 127.886719 C 278.222656 126.859375 275.714844 126.34375 273.480469 126.34375 C 262.503906 126.34375 257.59375 139.164062 252.742188 154.648438 L 250.539062 161.671875 L 196.449219 116.910156 L 199.148438 113.707031 C 200.300781 112.335938 202.394531 109.5 204.824219 106.210938 C 221.871094 83.125 232.605469 70.617188 240.480469 70.617188 C 241.355469 70.617188 242.199219 70.761719 242.984375 71.050781 C 247.644531 72.765625 249.9375 78 252.152344 83.054688 C 253.753906 86.710938 255.5625 90.859375 257.769531 92.242188 C 261.027344 94.269531 264.316406 95.300781 267.542969 95.300781 C 270.109375 95.300781 272.726562 94.644531 275.324219 93.355469 C 282.148438 89.96875 285.835938 84.988281 285.964844 78.960938 C 286.128906 71.574219 280.882812 63.648438 272.910156 59.238281 C 270.039062 57.648438 267.632812 56.628906 265.707031 55.808594 C 262.308594 54.367188 259.371094 53.125 258.484375 49.902344 C 257.433594 46.117188 259.910156 42.726562 265.328125 35.304688 C 266.203125 34.105469 267.191406 32.710938 268.261719 31.199219 C 273.65625 23.5625 280.933594 13.257812 287.757812 8.480469 C 289.058594 5.542969 291.941406 0.289062 297.25 0.289062 C 302.347656 0.289062 305.898438 5.480469 307.402344 7.921875 C 312.097656 11.878906 316.796875 15.835938 321.496094 19.789062 C 323 21.058594 324.773438 22.796875 326.824219 24.816406 C 331.65625 29.574219 339.753906 37.539062 344.160156 37.816406 C 344.417969 37.832031 344.667969 37.839844 344.914062 37.839844 C 349.785156 37.839844 351.34375 34.570312 353.988281 26.535156 C 356.535156 18.800781 360.019531 8.207031 373.011719 8.207031 L 373.429688 8.207031 C 379.164062 8.3125 385.03125 11.347656 389.121094 16.324219 C 392.945312 20.988281 394.605469 26.671875 393.660156 31.914062 C 392.066406 40.773438 385.640625 43.785156 380.476562 46.207031 C 378.109375 47.3125 375.882812 48.355469 374.144531 49.847656 C 371.105469 52.460938 369.664062 54.855469 369.742188 57.175781 C 369.929688 62.746094 378.601562 69.226562 385.570312 74.433594 C 388.070312 76.304688 390.4375 78.074219 392.53125 79.839844 C 396.941406 83.535156 401.359375 87.253906 405.769531 90.988281 C 410.195312 93.195312 412.507812 95.980469 412.644531 99.28125 " fill-opacity="1" fill-rule="nonzero"/></g><path fill="#ffffff" d="M 248.882812 163.667969 C 249.367188 164.070312 249.949219 164.265625 250.539062 164.265625 C 251.28125 164.265625 252.027344 163.949219 252.542969 163.328125 C 253.457031 162.222656 253.300781 160.582031 252.191406 159.667969 L 203.964844 119.757812 C 202.859375 118.84375 201.21875 119 200.304688 120.109375 C 199.390625 121.210938 199.542969 122.851562 200.652344 123.765625 Z M 339.289062 401.4375 C 338.996094 401.542969 338.699219 401.589844 338.40625 401.589844 C 337.339844 401.589844 336.34375 400.933594 335.957031 399.871094 L 334.546875 395.957031 C 333.648438 393.460938 332.617188 389.753906 331.3125 385.066406 C 329.050781 376.949219 325.957031 365.832031 322.261719 356.871094 C 316.9375 343.949219 313.515625 343.070312 313.480469 343.066406 C 313.441406 343.058594 313.402344 343.058594 313.363281 343.058594 C 311.074219 343.058594 305.894531 346.949219 302.46875 349.515625 C 296.316406 354.136719 289.957031 358.910156 282.894531 358.910156 C 277.660156 358.910156 270.472656 356.21875 265.941406 343.386719 C 263.097656 335.335938 263.269531 329.078125 266.464844 324.246094 C 271.40625 316.785156 281.316406 316.167969 290.050781 315.625 C 293.945312 315.378906 301.1875 314.929688 302.375 313.429688 C 306.527344 308.183594 299.957031 294.816406 294.679688 284.074219 C 290.902344 276.378906 287.328125 269.101562 285.964844 262.457031 L 284.222656 262.300781 C 277.316406 261.667969 268.113281 266.203125 258.355469 270.996094 C 245.667969 277.230469 231.292969 284.289062 223.476562 278.101562 C 220.15625 275.476562 219.75 268.945312 219.324219 262.035156 C 218.832031 254.125 218.320312 245.964844 213.015625 242.453125 C 209.640625 240.214844 204.886719 240.230469 198.476562 242.496094 C 190.480469 245.320312 186.421875 249.375 186.421875 254.542969 C 186.421875 259.875 190.667969 265.527344 194.773438 270.992188 C 198.464844 275.90625 202.273438 280.984375 202.273438 285.011719 C 202.273438 285.402344 202.238281 285.78125 202.167969 286.140625 C 201.371094 290.183594 195.675781 294.421875 185.242188 298.71875 C 175.992188 302.535156 164.703125 305.675781 156.460938 307.96875 C 151.875 309.246094 148.257812 310.25 145.9375 311.089844 L 142.027344 312.5 C 141.734375 312.605469 141.4375 312.65625 141.140625 312.65625 C 140.082031 312.65625 139.078125 312 138.699219 310.9375 C 138.210938 309.585938 138.910156 308.097656 140.261719 307.609375 L 144.175781 306.199219 C 146.675781 305.292969 150.378906 304.269531 155.070312 302.964844 C 163.179688 300.703125 174.300781 297.609375 183.257812 293.914062 C 196.183594 288.585938 197.0625 285.164062 197.070312 285.132812 C 197.074219 285.089844 197.074219 285.050781 197.074219 285.011719 C 197.074219 282.71875 193.191406 277.546875 190.617188 274.121094 C 185.996094 267.964844 181.226562 261.609375 181.226562 254.542969 C 181.226562 249.308594 183.917969 242.121094 196.75 237.589844 C 204.796875 234.746094 211.058594 234.917969 215.882812 238.113281 C 223.351562 243.058594 223.964844 252.960938 224.507812 261.699219 C 224.75 265.597656 225.199219 272.839844 226.707031 274.023438 C 231.945312 278.179688 245.316406 271.609375 256.058594 266.332031 C 266.488281 261.203125 276.339844 256.355469 284.691406 257.125 L 287.328125 257.359375 C 288.085938 257.429688 288.726562 257.816406 289.152344 258.378906 C 290.027344 258.679688 290.710938 259.425781 290.875 260.402344 C 291.890625 266.605469 295.511719 273.972656 299.34375 281.769531 C 305.578125 294.460938 312.640625 308.839844 306.453125 316.65625 C 303.824219 319.980469 297.296875 320.382812 290.386719 320.816406 C 282.476562 321.304688 274.3125 321.8125 270.800781 327.121094 C 268.570312 330.496094 268.582031 335.246094 270.847656 341.652344 C 273.671875 349.65625 277.722656 353.710938 282.894531 353.710938 C 288.226562 353.710938 293.875 349.46875 299.339844 345.363281 C 304.257812 341.671875 309.335938 337.855469 313.363281 337.855469 C 313.75 337.855469 314.132812 337.894531 314.492188 337.964844 C 318.535156 338.761719 322.769531 344.457031 327.074219 354.894531 C 330.882812 364.140625 334.023438 375.429688 336.320312 383.671875 C 337.597656 388.257812 338.605469 391.878906 339.4375 394.195312 L 340.851562 398.105469 C 341.335938 399.457031 340.640625 400.949219 339.289062 401.4375 " fill-opacity="1" fill-rule="nonzero"/><path fill="#307bdf" d="M 629.414062 226.90625 C 629.695312 225.085938 629.976562 223.195312 630.257812 221.234375 C 630.539062 219.554688 630.75 217.667969 630.890625 215.574219 C 631.03125 213.472656 631.171875 211.441406 631.3125 209.480469 L 538.699219 210.734375 L 533.871094 201.921875 C 533.589844 205.140625 533.273438 208.429688 532.921875 211.789062 C 532.570312 215.148438 531.972656 217.949219 531.140625 220.191406 C 529.457031 224.667969 526.621094 228.238281 522.632812 230.902344 C 518.636719 233.558594 514.195312 234.886719 509.296875 234.886719 C 508.175781 234.886719 507.269531 234.816406 506.566406 234.675781 L 509.507812 189.523438 L 534.292969 191.210938 C 534.292969 192.046875 534.292969 193.0625 534.292969 194.257812 C 534.292969 195.445312 534.222656 196.808594 534.082031 198.347656 C 539.824219 198.066406 546.574219 197.753906 554.34375 197.410156 C 562.113281 197.058594 570.339844 196.671875 579.023438 196.25 C 587.699219 195.828125 596.554688 195.410156 605.578125 194.996094 C 614.605469 194.574219 623.25 194.1875 631.511719 193.835938 C 639.773438 193.484375 647.335938 193.132812 654.199219 192.78125 C 661.054688 192.429688 666.726562 192.1875 671.214844 192.054688 C 671.214844 195.828125 670.722656 199.78125 669.738281 203.914062 C 668.757812 208.046875 666.867188 211.828125 664.066406 215.257812 C 661.265625 218.6875 657.351562 221.488281 652.3125 223.660156 C 647.273438 225.824219 640.546875 226.90625 632.144531 226.90625 Z M 607.160156 283.191406 L 607.371094 293.902344 L 607.371094 294.734375 C 607.371094 297.820312 606.808594 300.554688 605.683594 302.9375 C 604.5625 305.3125 603.058594 307.265625 601.171875 308.808594 C 599.277344 310.347656 597.105469 311.496094 594.65625 312.265625 C 592.207031 313.039062 589.726562 313.425781 587.214844 313.425781 C 584.828125 313.425781 582.515625 313.109375 580.277344 312.476562 C 578.03125 311.847656 575.964844 310.90625 574.078125 309.640625 C 572.191406 308.378906 570.621094 306.808594 569.355469 304.929688 C 568.09375 303.039062 567.257812 300.902344 566.835938 298.519531 L 575.871094 295.578125 L 575.027344 282.980469 L 522.105469 282.558594 L 524.003906 269.117188 C 531.554688 268.835938 539.425781 268.660156 547.617188 268.589844 C 555.808594 268.519531 564.597656 268.484375 573.984375 268.484375 L 573.5625 262.613281 L 606.527344 262.402344 L 606.527344 265.554688 C 618.28125 265.828125 628.011719 266 635.71875 266.070312 C 643.417969 266.140625 649.089844 266.316406 652.734375 266.597656 L 654.832031 283.402344 Z M 549.621094 246.863281 L 552.5625 227.960938 L 554.660156 227.960938 C 557.039062 227.960938 560.15625 227.996094 564 228.066406 C 567.847656 228.136719 572.050781 228.242188 576.597656 228.382812 C 581.148438 228.523438 585.914062 228.699219 590.882812 228.910156 C 595.851562 229.113281 600.609375 229.320312 605.15625 229.53125 C 609.707031 229.742188 613.839844 229.953125 617.554688 230.164062 C 621.261719 230.375 624.238281 230.550781 626.484375 230.691406 C 626.203125 239.371094 623.710938 245.882812 619.019531 250.226562 C 614.332031 254.5625 606.457031 256.730469 595.394531 256.730469 C 594.554688 256.730469 593.71875 256.730469 592.875 256.730469 C 592.035156 256.730469 591.128906 256.660156 590.144531 256.519531 C 590.425781 255.675781 590.707031 254.765625 590.988281 253.789062 C 591.410156 252.109375 591.621094 250.359375 591.621094 248.539062 Z M 658.195312 153.617188 C 657.914062 154.601562 657.246094 156.109375 656.191406 158.140625 C 655.140625 160.164062 653.953125 162.296875 652.617188 164.539062 C 651.285156 166.78125 649.886719 168.882812 648.421875 170.84375 C 646.949219 172.796875 645.65625 174.265625 644.542969 175.25 C 642.015625 177.492188 638.933594 179.207031 635.296875 180.394531 C 631.652344 181.582031 627.808594 182.175781 623.753906 182.175781 C 618.152344 182.175781 612.902344 180.917969 608.003906 178.402344 C 609.679688 175.738281 611.496094 172.691406 613.453125 169.261719 C 615.410156 165.832031 617.335938 162.296875 619.230469 158.65625 C 621.117188 155.015625 622.9375 151.445312 624.691406 147.945312 C 626.4375 144.445312 627.878906 141.367188 629.003906 138.710938 Z M 516.855469 166.214844 L 532.605469 142.90625 C 537.507812 145.570312 541.570312 147.988281 544.792969 150.160156 C 548.007812 152.324219 550.5625 154.421875 552.457031 156.453125 C 554.34375 158.484375 555.671875 160.585938 556.441406 162.757812 C 557.214844 164.921875 557.601562 167.335938 557.601562 170 C 557.601562 173.359375 557.039062 176.578125 555.914062 179.65625 C 554.792969 182.734375 553.253906 185.464844 551.296875 187.847656 Z M 563.695312 152.773438 L 585.738281 136.402344 C 588.671875 139.480469 591.050781 142.140625 592.875 144.382812 C 594.691406 146.617188 596.125 148.609375 597.175781 150.359375 C 598.230469 152.109375 598.933594 153.6875 599.285156 155.09375 C 599.636719 156.492188 599.8125 157.890625 599.8125 159.289062 C 599.8125 163.765625 598.511719 168.035156 595.921875 172.097656 C 593.332031 176.160156 590.289062 179.242188 586.792969 181.34375 Z M 563.695312 152.773438 " fill-opacity="1" fill-rule="nonzero"/><path fill="#307bdf" d="M 808.753906 226.695312 C 808.472656 233.28125 808.121094 239.6875 807.699219 245.914062 C 807.285156 252.140625 806.585938 257.777344 805.601562 262.824219 C 804.484375 268.699219 802.628906 273.949219 800.035156 278.574219 C 797.449219 283.191406 794.371094 287.144531 790.800781 290.433594 C 787.230469 293.722656 783.273438 296.207031 778.929688 297.886719 C 774.59375 299.566406 770.046875 300.40625 765.289062 300.40625 C 762.90625 300.40625 760.457031 300.195312 757.941406 299.773438 C 759.621094 295.71875 761.054688 290.996094 762.242188 285.605469 C 763.429688 280.214844 764.40625 274.371094 765.171875 268.074219 C 765.945312 261.769531 766.542969 255.152344 766.964844 248.222656 C 767.386719 241.292969 767.667969 234.398438 767.808594 227.539062 L 723.710938 229.425781 L 720.558594 203.597656 C 725.457031 203.597656 732.105469 203.632812 740.503906 203.703125 C 748.902344 203.773438 758.144531 203.949219 768.230469 204.230469 L 768.230469 171.054688 L 806.445312 172.097656 C 806.867188 175.597656 807.25 180.21875 807.59375 185.960938 C 807.945312 191.703125 808.261719 198.074219 808.542969 205.074219 L 848.867188 206.328125 L 849.289062 223.554688 Z M 808.753906 226.695312 " fill-opacity="1" fill-rule="nonzero"/><path fill="#307bdf" d="M 1021.066406 264.289062 C 1021.066406 267.367188 1020.609375 270.550781 1019.695312 273.839844 C 1018.789062 277.128906 1017.425781 280.175781 1015.605469 282.980469 C 1013.785156 285.777344 1011.4375 288.121094 1008.5625 290.011719 C 1005.695312 291.902344 1002.371094 292.988281 998.589844 293.269531 C 994.253906 293.550781 989.914062 293.796875 985.570312 294.007812 C 981.234375 294.21875 976.894531 294.324219 972.550781 294.324219 C 963.035156 294.324219 954.949219 294.007812 948.292969 293.375 C 941.644531 292.742188 936.113281 291.449219 931.699219 289.496094 C 927.292969 287.535156 923.863281 284.839844 921.410156 281.410156 C 918.964844 277.972656 917.179688 273.386719 916.054688 267.652344 C 914.9375 261.910156 914.238281 254.945312 913.957031 246.757812 C 913.683594 238.5625 913.546875 228.796875 913.546875 217.460938 C 913.546875 210.882812 913.582031 204.6875 913.652344 198.875 C 913.722656 193.0625 913.894531 188.058594 914.167969 183.863281 L 947.988281 183.441406 C 948.121094 185.261719 948.222656 188.238281 948.292969 192.371094 C 948.363281 196.496094 948.46875 201.21875 948.609375 206.539062 C 948.75 211.859375 948.890625 217.425781 949.03125 223.238281 C 949.171875 229.042969 949.3125 234.570312 949.453125 239.820312 C 949.59375 245.070312 949.734375 249.761719 949.875 253.894531 C 950.015625 258.027344 950.085938 261.003906 950.085938 262.824219 C 953.726562 263.519531 958.273438 264.007812 963.726562 264.289062 C 969.1875 264.570312 975 264.710938 981.164062 264.710938 C 985.085938 264.710938 988.96875 264.675781 992.8125 264.605469 C 996.664062 264.535156 1000.339844 264.429688 1003.839844 264.289062 C 1007.339844 264.148438 1010.558594 263.972656 1013.496094 263.761719 C 1016.441406 263.550781 1018.964844 263.375 1021.066406 263.234375 Z M 1016.648438 202.554688 C 1012.875 208.851562 1009.269531 214.519531 1005.832031 219.558594 C 1002.402344 224.597656 999.007812 228.902344 995.648438 232.472656 C 992.289062 236.042969 988.789062 238.808594 985.148438 240.769531 C 981.507812 242.730469 977.589844 243.710938 973.394531 243.710938 C 969.472656 243.710938 965.515625 242.800781 961.523438 240.980469 C 957.539062 239.160156 953.65625 236.289062 949.875 232.367188 C 954.492188 227.75 958.796875 223.378906 962.789062 219.253906 C 966.78125 215.121094 970.527344 211.128906 974.027344 207.277344 C 977.527344 203.425781 980.851562 199.609375 984 195.828125 C 987.148438 192.046875 990.191406 188.195312 993.128906 184.273438 Z M 1010.144531 177.136719 L 1019.378906 165.804688 C 1024.417969 166.78125 1027.988281 168.425781 1030.089844 170.738281 C 1032.191406 173.042969 1033.242188 175.457031 1033.242188 177.980469 C 1033.242188 180.777344 1032.226562 183.261719 1030.195312 185.433594 C 1028.164062 187.605469 1025.609375 188.691406 1022.53125 188.691406 C 1021.273438 188.691406 1019.804688 188.339844 1018.125 187.636719 Z M 1033.875 177.136719 L 1043.109375 165.804688 C 1048.148438 166.78125 1051.71875 168.425781 1053.820312 170.738281 C 1055.921875 173.042969 1056.972656 175.457031 1056.972656 177.980469 C 1056.972656 180.777344 1055.957031 183.261719 1053.925781 185.433594 C 1051.894531 187.605469 1049.339844 188.691406 1046.261719 188.691406 C 1045.003906 188.691406 1043.535156 188.339844 1041.855469 187.636719 Z M 1033.875 177.136719 " fill-opacity="1" fill-rule="nonzero"/></svg>