<svg xmlns="http://www.w3.org/2000/svg" xmlns:xlink="http://www.w3.org/1999/xlink" width="2000" zoomAndPan="magnify" viewBox="0 0 1500 1499.999933" height="2000" preserveAspectRatio="xMidYMid meet" version="1.0"><defs><g/><clipPath id="24d1a1c3b8"><path d="M 163 801 L 452 801 L 452 1089.371094 L 163 1089.371094 Z M 163 801 " clip-rule="nonzero"/></clipPath><clipPath id="b46af31635"><path d="M 355 758.171875 L 644.53125 758.171875 L 644.53125 1046.171875 L 355 1046.171875 Z M 355 758.171875 " clip-rule="nonzero"/></clipPath><clipPath id="2118ea012b"><path d="M 119.15625 607 L 410 607 L 410 896 L 119.15625 896 Z M 119.15625 607 " clip-rule="nonzero"/></clipPath><clipPath id="a52223145e"><path d="M 261 489.371094 L 551 489.371094 L 551 772 L 261 772 Z M 261 489.371094 " clip-rule="nonzero"/></clipPath></defs><rect x="-150" width="1800" fill="#ffffff" y="-149.999993" height="1799.99992" fill-opacity="1"/><rect x="-150" width="1800" fill="#ffffff" y="-149.999993" height="1799.99992" fill-opacity="1"/><g clip-path="url(#24d1a1c3b8)"><path fill="#00bf63" d="M 450.6875 1018.785156 C 449.773438 1021.082031 448.078125 1025.359375 415.726562 1035.957031 C 401.675781 1040.558594 382.390625 1045.929688 374.273438 1045.9375 C 372.746094 1045.9375 370.5 1045.78125 368.648438 1044.472656 C 363.207031 1040.625 363.707031 1031.828125 364.285156 1021.640625 C 364.503906 1017.800781 364.835938 1012 364.261719 1010.375 C 360.960938 1001.035156 354.453125 996.085938 344.363281 995.242188 C 342.894531 995.117188 341.46875 995.058594 340.125 995.058594 C 331.257812 995.058594 325.246094 997.691406 322.257812 1002.894531 C 316.824219 1012.332031 321.121094 1028.273438 327.414062 1039.085938 C 328.398438 1040.785156 329.300781 1042.28125 330.101562 1043.601562 C 333.65625 1049.476562 336 1053.355469 334.421875 1057.804688 C 332.71875 1062.589844 328.023438 1064.273438 317.734375 1067.957031 C 316.386719 1068.441406 314.929688 1068.964844 313.351562 1069.539062 C 302.429688 1073.507812 291.488281 1077.441406 280.550781 1081.378906 C 274.898438 1083.414062 258.367188 1089.371094 258.367188 1089.371094 L 256.480469 1084.152344 C 255.207031 1080.617188 253.691406 1075.074219 251.933594 1068.652344 C 247.308594 1051.757812 237.679688 1016.605469 227.925781 1013.101562 C 226.847656 1012.714844 225.84375 1012.527344 224.851562 1012.527344 C 220.367188 1012.527344 215.902344 1016.742188 211.175781 1021.203125 C 205.15625 1026.890625 198.332031 1033.335938 188.875 1033.335938 C 185.007812 1033.335938 181.035156 1032.207031 177.070312 1029.988281 C 170.972656 1026.566406 166.4375 1020.207031 164.644531 1012.539062 C 162.847656 1004.867188 164.054688 997.203125 167.945312 991.515625 C 174.109375 982.5 181.867188 981.460938 187.164062 981.460938 C 189.445312 981.460938 191.699219 981.675781 193.875 981.875 C 195.976562 982.078125 197.957031 982.261719 199.890625 982.261719 C 202.226562 982.261719 204.109375 981.980469 205.796875 981.375 C 209.609375 980.007812 211.949219 978.054688 213.15625 975.238281 C 216.945312 966.394531 209.53125 949.640625 203.574219 936.179688 C 199.992188 928.082031 196.609375 920.4375 195.359375 914.25 L 195.207031 913.496094 C 193.523438 905.15625 192.679688 900.96875 194.390625 897.125 C 196.398438 892.617188 200.574219 891.289062 206.898438 889.285156 C 209.136719 888.566406 211.679688 887.761719 214.773438 886.648438 C 218.5 885.3125 223.316406 884.011719 228.417969 882.632812 C 239.722656 879.566406 255.207031 875.382812 260.953125 869.621094 C 267.75 862.808594 265.550781 858.867188 256.976562 848.4375 C 249.40625 839.21875 239.035156 826.597656 252.132812 811 C 257.171875 805 265.59375 801.273438 274.117188 801.273438 C 280.597656 801.273438 286.539062 803.457031 290.839844 807.425781 C 299.476562 815.386719 298.40625 825.023438 297.542969 832.761719 C 297.042969 837.300781 296.5625 841.585938 297.96875 845 C 299.175781 847.925781 301.660156 851.277344 310.257812 851.277344 C 324.953125 851.277344 346.753906 841.457031 362.667969 834.285156 C 368.558594 831.632812 364.753906 833.007812 368.558594 831.632812 L 370.316406 830.945312 C 377.039062 828.300781 384.609375 831.820312 386.921875 838.664062 C 388.101562 841.9375 387.894531 839.488281 390.394531 845.183594 C 404.445312 877.199219 414.945312 904.382812 401.066406 912.710938 C 397.269531 914.992188 392.957031 915.253906 390.046875 915.253906 C 387.851562 915.253906 385.597656 915.078125 383.417969 914.914062 C 381.324219 914.75 379.15625 914.585938 377.152344 914.585938 C 373.714844 914.585938 371.253906 915.085938 369.414062 916.144531 C 360.5 921.265625 356.34375 931.878906 359.066406 942.554688 C 361.359375 951.539062 368.457031 959.253906 376.316406 961.316406 C 377.953125 961.742188 379.496094 961.960938 380.910156 961.960938 C 386.046875 961.960938 389.652344 959.070312 394.21875 955.410156 C 397.828125 952.519531 401.914062 949.238281 407.246094 947.296875 C 411.984375 945.570312 414.988281 944.863281 417.628906 944.863281 C 426.050781 944.863281 428.316406 951.699219 430.941406 959.609375 C 431.550781 961.457031 432.242188 963.554688 433.097656 965.910156 C 433.820312 967.917969 435.636719 971.886719 437.742188 976.484375 C 448.757812 1000.539062 453.238281 1012.355469 450.6875 1018.785156 " fill-opacity="1" fill-rule="nonzero"/></g><g clip-path="url(#b46af31635)"><path fill="#38b6ff" d="M 644.53125 951.234375 L 639.308594 953.113281 C 636.183594 954.242188 631.484375 955.542969 625.542969 957.191406 C 614.382812 960.285156 599.09375 964.519531 586.867188 969.828125 C 569.625 977.3125 567.566406 982.988281 567.484375 985.078125 C 567.359375 988.101562 572.386719 995.320312 576.050781 1000.589844 C 583.308594 1011.019531 591.53125 1022.832031 587.160156 1033.011719 C 584.347656 1039.574219 577.117188 1043.664062 565.046875 1045.523438 C 562.6875 1045.890625 560.460938 1046.070312 558.429688 1046.070312 C 537.335938 1046.070312 537.25 1027.410156 537.191406 1015.058594 C 537.15625 1007.0625 537.113281 998.796875 533.09375 995.6875 C 531.679688 994.589844 529.257812 994.007812 526.09375 994.007812 C 511.898438 994.007812 487.761719 1005.078125 471.792969 1012.402344 C 465.542969 1015.273438 460.144531 1017.746094 456.425781 1019.089844 L 451.210938 1020.96875 L 449.324219 1015.753906 C 448.175781 1012.5625 446.8125 1007.671875 445.085938 1001.480469 C 442.054688 990.570312 437.898438 975.632812 432.890625 963.496094 C 425.726562 946.125 420.542969 943.378906 418.644531 943.003906 C 418.386719 942.953125 418.109375 942.929688 417.820312 942.929688 C 413.605469 942.929688 407.019531 947.875 401.207031 952.238281 C 393.464844 958.050781 385.457031 964.0625 377.195312 964.0625 C 368.671875 964.0625 362.164062 957.882812 357.859375 945.679688 C 354.453125 936.042969 354.558594 928.695312 358.179688 923.230469 C 363.816406 914.714844 375.578125 913.984375 386.953125 913.28125 C 394.636719 912.796875 403.339844 912.257812 405.886719 909.042969 C 412.78125 900.335938 403.875 882.210938 396.019531 866.21875 C 389.40625 852.757812 383.160156 840.050781 384.085938 829.890625 L 384.402344 826.367188 L 387.726562 825.171875 C 391.1875 823.921875 396.023438 821.8125 401.625 819.367188 C 418.175781 812.132812 438.773438 803.132812 452.898438 803.132812 C 459.699219 803.132812 464.695312 805.234375 467.746094 809.367188 C 471.566406 814.546875 471.210938 821.101562 470.863281 827.441406 C 470.484375 834.300781 470.132812 840.777344 474.660156 845.203125 C 479.058594 849.496094 484.59375 851.765625 490.679688 851.765625 C 493.796875 851.765625 496.988281 851.175781 500.171875 850.011719 C 509.710938 846.535156 515.664062 839.316406 516.511719 830.210938 C 517.15625 823.234375 514.265625 819.777344 510.257812 814.988281 C 507.492188 811.683594 504.355469 807.933594 502.375 802.714844 C 500 796.472656 498.921875 791.773438 500.882812 787.660156 C 503.078125 783.050781 507.820312 781.484375 514.386719 779.320312 C 516.289062 778.691406 518.441406 777.980469 520.84375 777.113281 C 522.710938 776.433594 526.59375 774.664062 531.089844 772.621094 C 547.8125 765.007812 562.285156 758.710938 569.929688 758.710938 C 571.550781 758.710938 572.933594 758.972656 574.152344 759.507812 C 579.757812 761.960938 583.71875 771.382812 591.820312 801.5 C 592.894531 805.496094 593.820312 808.945312 594.347656 810.492188 C 595.015625 812.460938 595.824219 814.457031 596.601562 816.394531 C 600.136719 825.164062 604.972656 837.179688 591.769531 844.203125 C 588.769531 845.796875 585.394531 846.542969 581.152344 846.542969 C 578.816406 846.542969 576.472656 846.324219 574.203125 846.109375 C 571.984375 845.898438 569.882812 845.695312 567.835938 845.695312 C 563.734375 845.695312 560.910156 846.523438 558.40625 848.457031 C 550.9375 854.226562 547.921875 866.019531 551.394531 875.890625 C 554.859375 885.742188 564.257812 892.894531 573.734375 892.894531 L 574.074219 892.890625 C 579.484375 892.796875 583.890625 888.523438 588.558594 884.007812 C 593.316406 879.402344 598.234375 874.640625 604.882812 874.167969 C 605.164062 874.148438 605.441406 874.140625 605.722656 874.140625 C 620.59375 874.140625 629.464844 900.824219 638.71875 933.054688 C 640.285156 938.5 641.628906 943.199219 642.648438 946.011719 L 644.53125 951.234375 " fill-opacity="1" fill-rule="nonzero"/></g><g clip-path="url(#2118ea012b)"><path fill="#ff751f" d="M 404.714844 736.667969 C 398.507812 743.703125 388.035156 743.71875 378.796875 743.734375 C 372.882812 743.742188 366.765625 743.746094 363.179688 745.570312 C 355.070312 749.6875 356.738281 757.664062 363.542969 773.996094 C 364.636719 776.621094 365.671875 779.09375 366.523438 781.476562 C 367.210938 783.398438 368.839844 786.742188 370.5625 790.273438 C 377.316406 804.132812 381.9375 814.480469 379.847656 821.453125 C 376.996094 830.96875 366.4375 834.308594 356.226562 837.539062 C 353.953125 838.257812 351.605469 838.996094 349.425781 839.789062 C 346.554688 840.824219 343.214844 842.328125 339.675781 843.921875 C 331.445312 847.632812 322.117188 851.832031 313.984375 852.214844 C 311.851562 852.3125 310.242188 852.359375 308.921875 852.359375 C 305.457031 852.359375 301.542969 852.136719 298.929688 849.402344 C 296.34375 846.703125 296.492188 843.285156 296.640625 839.980469 C 296.734375 837.910156 296.84375 835.328125 296.503906 832.015625 C 294.757812 815.085938 285.699219 804.980469 272.265625 804.980469 C 263.570312 804.980469 255.261719 809.421875 251.101562 816.300781 C 247.105469 822.894531 247.351562 830.878906 251.804688 839.386719 C 252.464844 840.640625 255.140625 843.253906 257.292969 845.347656 C 263.105469 851.023438 269.113281 856.890625 267.835938 863.546875 C 266.28125 871.578125 255.464844 875.1875 242.550781 878.757812 C 240.695312 879.265625 238.945312 879.75 238.054688 880.074219 C 235.097656 881.148438 231.839844 882.582031 228.394531 884.09375 C 220.414062 887.605469 212.171875 891.234375 204.261719 892.070312 C 200.117188 892.507812 198.960938 893.433594 198.464844 893.828125 C 197.875 894.296875 196.492188 895.402344 194.398438 895.402344 C 194.398438 895.402344 194.394531 895.402344 194.394531 895.402344 C 190.589844 895.402344 189.140625 892.246094 188.441406 890.734375 C 187.820312 889.367188 186.65625 886.828125 183.96875 882.390625 C 181.085938 877.613281 179.386719 871.890625 177.746094 866.351562 C 177.019531 863.914062 176.339844 861.613281 175.597656 859.570312 C 175.132812 858.273438 174.027344 855.839844 172.75 853.023438 C 164.554688 834.980469 161.242188 825.355469 164.558594 819.460938 C 168.625 812.25 176.96875 812.25 179.710938 812.25 C 181.859375 812.25 184.074219 812.421875 186.210938 812.582031 C 188.277344 812.742188 190.226562 812.890625 192.050781 812.890625 C 193.75 812.890625 195.085938 812.757812 196.140625 812.484375 C 205.007812 810.183594 211.613281 803.695312 213.800781 795.136719 C 216.003906 786.511719 213.21875 777.507812 206.347656 771.050781 C 201.796875 766.765625 197.011719 764.6875 191.734375 764.6875 C 187.972656 764.6875 183.882812 765.765625 179.574219 767.890625 C 178.285156 768.53125 175.296875 771.605469 173.117188 773.851562 C 167.699219 779.4375 162.585938 784.710938 156.921875 784.710938 L 156.570312 784.703125 C 145.503906 784.269531 137.53125 763.75 124.871094 720.796875 C 123.378906 715.742188 122.089844 711.378906 121.355469 709.332031 L 119.46875 704.109375 L 124.6875 702.230469 C 130.445312 700.152344 137.769531 698.207031 145.527344 696.144531 C 162.195312 691.714844 182.945312 686.199219 191.585938 677.933594 C 195.566406 674.128906 197.574219 671.132812 197.390625 669.257812 C 197.210938 667.414062 195.003906 664.800781 192.453125 661.78125 C 189.96875 658.84375 186.882812 655.179688 184.203125 650.507812 C 178.851562 641.175781 178.871094 629.605469 184.25 620.316406 C 188.808594 612.453125 196.25 607.945312 204.675781 607.945312 C 209.304688 607.945312 214.015625 609.320312 218.671875 612.027344 C 231.125 619.28125 230.546875 631.878906 230.082031 642 C 229.617188 652.101562 229.917969 656.8125 234.75 659.488281 C 235.921875 660.136719 237.59375 660.464844 239.726562 660.464844 C 249.816406 660.464844 265.386719 653.359375 276.757812 648.171875 C 281.222656 646.132812 285.074219 644.375 287.996094 643.316406 C 290.640625 642.359375 292.796875 641.457031 294.699219 640.660156 C 298.546875 639.042969 301.328125 637.875 304.460938 637.875 C 310.191406 637.875 314.023438 642.003906 317.457031 646.234375 C 323.160156 653.253906 326.277344 664.894531 329.023438 675.167969 C 330.207031 679.589844 331.320312 683.761719 332.492188 686.992188 C 333.183594 688.894531 333.847656 690.863281 334.507812 692.839844 C 338.554688 704.878906 341.699219 712.765625 348.238281 712.765625 C 349.90625 712.765625 351.871094 712.332031 354.085938 711.472656 C 356.765625 710.433594 359.203125 707.664062 361.78125 704.738281 C 365.535156 700.476562 369.792969 695.644531 376.515625 694.007812 C 378.582031 693.507812 380.695312 693.25 382.796875 693.25 C 396.109375 693.25 407.40625 703.386719 409.070312 716.828125 C 410.160156 725.625 408.734375 732.113281 404.714844 736.667969 " fill-opacity="1" fill-rule="nonzero"/></g><g clip-path="url(#a52223145e)"><path fill="#ff3131" d="M 550.195312 621.359375 C 550.453125 627.519531 544.738281 631.785156 541.378906 633.875 C 537.347656 642.101562 530.105469 649.222656 523.082031 656.117188 C 518.675781 660.449219 514.507812 664.546875 511.515625 668.550781 C 502.539062 680.5625 502.601562 684.265625 502.835938 685.109375 C 503.257812 686.632812 507.796875 688.5 511.804688 690.148438 C 516.976562 692.277344 523.40625 694.921875 529.6875 699.585938 C 539.132812 706.597656 542.722656 717.847656 539.054688 728.945312 C 535.265625 740.390625 524.957031 748.386719 513.988281 748.386719 C 513.988281 748.386719 513.984375 748.386719 513.984375 748.386719 C 509.277344 748.386719 504.695312 746.984375 500.363281 744.226562 C 492.382812 739.128906 488.492188 731.324219 485.363281 725.054688 C 482.230469 718.773438 480.59375 716.019531 478.125 716.019531 C 476.570312 716.019531 473.574219 716.761719 468.125 720.308594 C 460.515625 725.265625 452.890625 735.707031 446.171875 744.921875 C 442.871094 749.441406 439.753906 753.707031 436.683594 757.339844 C 429.03125 766.367188 424.015625 771.90625 417.523438 771.90625 C 412.179688 771.90625 408.253906 768.421875 401.742188 762.65625 C 399.890625 761.019531 397.796875 759.160156 395.363281 757.109375 C 393.742188 755.742188 390.824219 753.703125 387.449219 751.339844 C 373.890625 741.84375 363.328125 733.960938 361.003906 726.179688 C 357.042969 712.914062 365.695312 709.507812 370.867188 707.480469 C 373.34375 706.503906 375.914062 705.496094 378.210938 703.65625 C 387.121094 696.53125 391.9375 685.964844 390.476562 676.738281 C 389.242188 668.925781 383.742188 662.960938 374.570312 659.5 C 370.964844 658.132812 367.621094 657.445312 364.640625 657.445312 C 350.007812 657.445312 343.457031 674.535156 336.988281 695.183594 L 334.050781 704.546875 L 261.929688 644.867188 L 265.53125 640.59375 C 267.066406 638.765625 269.859375 634.984375 273.097656 630.601562 C 295.828125 599.816406 310.140625 583.140625 320.640625 583.140625 C 321.804688 583.140625 322.929688 583.335938 323.980469 583.71875 C 330.195312 586.003906 333.25 592.984375 336.203125 599.726562 C 338.335938 604.601562 340.75 610.128906 343.695312 611.972656 C 348.039062 614.675781 352.421875 616.050781 356.722656 616.050781 C 360.144531 616.050781 363.636719 615.179688 367.097656 613.460938 C 376.199219 608.945312 381.113281 602.300781 381.289062 594.265625 C 381.507812 584.417969 374.511719 573.851562 363.882812 567.96875 C 360.050781 565.847656 356.84375 564.492188 354.273438 563.394531 C 349.742188 561.476562 345.828125 559.820312 344.644531 555.523438 C 343.246094 550.472656 346.546875 545.953125 353.769531 536.058594 C 354.9375 534.460938 356.253906 532.597656 357.679688 530.582031 C 364.875 520.402344 374.578125 506.664062 383.675781 500.292969 C 385.414062 496.375 389.257812 489.371094 396.332031 489.371094 C 403.128906 489.371094 407.863281 496.292969 409.871094 499.546875 C 416.132812 504.824219 422.394531 510.097656 428.664062 515.371094 C 430.667969 517.0625 433.03125 519.382812 435.765625 522.074219 C 442.210938 528.417969 453.003906 539.035156 458.882812 539.40625 C 459.226562 539.429688 459.558594 539.4375 459.886719 539.4375 C 466.378906 539.4375 468.460938 535.078125 471.984375 524.367188 C 475.378906 514.054688 480.027344 499.925781 497.347656 499.925781 L 497.90625 499.929688 C 505.554688 500.066406 513.375 504.113281 518.828125 510.75 C 523.929688 516.96875 526.140625 524.546875 524.882812 531.539062 C 522.753906 543.347656 514.1875 547.363281 507.300781 550.59375 C 504.148438 552.070312 501.179688 553.460938 498.859375 555.449219 C 494.808594 558.933594 492.886719 562.125 492.988281 565.21875 C 493.242188 572.644531 504.800781 581.289062 514.09375 588.230469 C 517.429688 590.722656 520.585938 593.082031 523.375 595.4375 C 529.257812 600.367188 535.148438 605.324219 541.027344 610.304688 C 546.929688 613.246094 550.011719 616.960938 550.195312 621.359375 " fill-opacity="1" fill-rule="nonzero"/></g><path fill="#ffffff" d="M 331.84375 707.210938 C 332.488281 707.746094 333.265625 708.007812 334.050781 708.007812 C 335.042969 708.007812 336.039062 707.582031 336.722656 706.753906 C 337.941406 705.28125 337.734375 703.09375 336.257812 701.875 L 271.953125 648.664062 C 270.476562 647.445312 268.292969 647.652344 267.074219 649.128906 C 265.851562 650.601562 266.058594 652.785156 267.535156 654.007812 Z M 452.386719 1024.234375 C 451.996094 1024.375 451.597656 1024.4375 451.210938 1024.4375 C 449.789062 1024.4375 448.457031 1023.5625 447.945312 1022.148438 L 446.0625 1016.929688 C 444.863281 1013.597656 443.488281 1008.65625 441.75 1002.40625 C 438.734375 991.585938 434.609375 976.761719 429.683594 964.8125 C 422.582031 947.585938 418.023438 946.414062 417.976562 946.40625 C 417.921875 946.398438 417.871094 946.398438 417.820312 946.398438 C 414.765625 946.398438 407.859375 951.582031 403.292969 955.007812 C 395.089844 961.167969 386.609375 967.53125 377.195312 967.53125 C 370.214844 967.53125 360.632812 963.941406 354.589844 946.832031 C 350.796875 936.097656 351.027344 927.753906 355.289062 921.3125 C 361.875 911.363281 375.085938 910.542969 386.734375 909.816406 C 391.929688 909.492188 401.582031 908.890625 403.167969 906.890625 C 408.703125 899.898438 399.945312 882.074219 392.90625 867.75 C 387.871094 857.492188 383.105469 847.785156 381.289062 838.929688 L 378.960938 838.71875 C 369.757812 837.875 357.484375 843.921875 344.476562 850.3125 C 327.558594 858.625 308.390625 868.039062 297.96875 859.789062 C 293.539062 856.285156 293 847.578125 292.429688 838.363281 C 291.773438 827.820312 291.09375 816.9375 284.019531 812.253906 C 279.519531 809.273438 273.179688 809.292969 264.636719 812.3125 C 253.972656 816.078125 248.5625 821.484375 248.5625 828.375 C 248.5625 835.484375 254.222656 843.019531 259.695312 850.308594 C 264.617188 856.859375 269.699219 863.632812 269.699219 869 C 269.699219 869.523438 269.652344 870.027344 269.558594 870.507812 C 268.496094 875.898438 260.902344 881.546875 246.988281 887.277344 C 234.65625 892.363281 219.605469 896.554688 208.613281 899.609375 C 202.5 901.3125 197.675781 902.652344 194.582031 903.769531 L 189.367188 905.652344 C 188.980469 905.792969 188.582031 905.859375 188.1875 905.859375 C 186.773438 905.859375 185.4375 904.984375 184.929688 903.566406 C 184.28125 901.765625 185.210938 899.78125 187.015625 899.132812 L 192.234375 897.25 C 195.566406 896.042969 200.503906 894.675781 206.757812 892.9375 C 217.574219 889.921875 232.398438 885.796875 244.34375 880.871094 C 261.578125 873.765625 262.75 869.203125 262.757812 869.160156 C 262.765625 869.105469 262.765625 869.054688 262.765625 869 C 262.765625 865.945312 257.585938 859.046875 254.15625 854.480469 C 247.996094 846.273438 241.632812 837.796875 241.632812 828.375 C 241.632812 821.398438 245.222656 811.8125 262.332031 805.773438 C 273.0625 801.980469 281.410156 802.210938 287.84375 806.46875 C 297.800781 813.0625 298.621094 826.265625 299.34375 837.917969 C 299.667969 843.117188 300.265625 852.769531 302.273438 854.351562 C 309.261719 859.890625 327.089844 851.128906 341.414062 844.09375 C 355.320312 837.257812 368.453125 830.792969 379.589844 831.816406 L 383.105469 832.132812 C 384.113281 832.222656 384.96875 832.742188 385.539062 833.488281 C 386.703125 833.890625 387.617188 834.886719 387.835938 836.1875 C 389.1875 844.457031 394.015625 854.28125 399.125 864.679688 C 407.4375 881.601562 416.855469 900.773438 408.605469 911.195312 C 405.101562 915.625 396.398438 916.164062 387.183594 916.738281 C 376.636719 917.390625 365.75 918.066406 361.070312 925.144531 C 358.09375 929.644531 358.109375 935.980469 361.128906 944.523438 C 364.894531 955.191406 370.296875 960.601562 377.195312 960.601562 C 384.300781 960.601562 391.832031 954.941406 399.121094 949.46875 C 405.679688 944.546875 412.449219 939.460938 417.820312 939.460938 C 418.335938 939.460938 418.84375 939.511719 419.324219 939.605469 C 424.714844 940.667969 430.359375 948.261719 436.097656 962.175781 C 441.179688 974.503906 445.367188 989.558594 448.429688 1000.546875 C 450.132812 1006.660156 451.472656 1011.488281 452.585938 1014.578125 L 454.46875 1019.792969 C 455.117188 1021.59375 454.1875 1023.582031 452.386719 1024.234375 " fill-opacity="1" fill-rule="nonzero"/><g fill="#307bdf" fill-opacity="1"><g transform="translate(644.904938, 897.369983)"><g><path d="M 194.3125 -105.84375 C 194.6875 -108.269531 195.0625 -110.789062 195.4375 -113.40625 C 195.8125 -115.644531 196.09375 -118.160156 196.28125 -120.953125 C 196.46875 -123.753906 196.65625 -126.460938 196.84375 -129.078125 L 73.359375 -127.40625 L 66.921875 -139.15625 C 66.546875 -134.863281 66.125 -130.476562 65.65625 -126 C 65.1875 -121.519531 64.394531 -117.785156 63.28125 -114.796875 C 61.039062 -108.828125 57.257812 -104.066406 51.9375 -100.515625 C 46.613281 -96.972656 40.6875 -95.203125 34.15625 -95.203125 C 32.664062 -95.203125 31.453125 -95.296875 30.515625 -95.484375 L 34.4375 -155.6875 L 67.484375 -153.4375 C 67.484375 -152.320312 67.484375 -150.96875 67.484375 -149.375 C 67.484375 -147.789062 67.390625 -145.972656 67.203125 -143.921875 C 74.859375 -144.296875 83.863281 -144.710938 94.21875 -145.171875 C 104.582031 -145.640625 115.550781 -146.15625 127.125 -146.71875 C 138.695312 -147.28125 150.5 -147.835938 162.53125 -148.390625 C 174.570312 -148.953125 186.097656 -149.46875 197.109375 -149.9375 C 208.128906 -150.40625 218.210938 -150.875 227.359375 -151.34375 C 236.503906 -151.8125 244.066406 -152.132812 250.046875 -152.3125 C 250.046875 -147.28125 249.390625 -142.007812 248.078125 -136.5 C 246.773438 -130.988281 244.253906 -125.945312 240.515625 -121.375 C 236.785156 -116.800781 231.5625 -113.066406 224.84375 -110.171875 C 218.125 -107.285156 209.160156 -105.84375 197.953125 -105.84375 Z M 164.640625 -30.796875 L 164.921875 -16.515625 L 164.921875 -15.40625 C 164.921875 -11.289062 164.171875 -7.644531 162.671875 -4.46875 C 161.179688 -1.300781 159.175781 1.304688 156.65625 3.359375 C 154.132812 5.410156 151.238281 6.945312 147.96875 7.96875 C 144.707031 9 141.398438 9.515625 138.046875 9.515625 C 134.867188 9.515625 131.785156 9.09375 128.796875 8.25 C 125.804688 7.414062 123.050781 6.15625 120.53125 4.46875 C 118.019531 2.789062 115.921875 0.695312 114.234375 -1.8125 C 112.554688 -4.332031 111.4375 -7.179688 110.875 -10.359375 L 122.921875 -14.28125 L 121.796875 -31.078125 L 51.234375 -31.640625 L 53.765625 -49.5625 C 63.835938 -49.9375 74.332031 -50.171875 85.25 -50.265625 C 96.175781 -50.359375 107.894531 -50.40625 120.40625 -50.40625 L 119.84375 -58.234375 L 163.796875 -58.515625 L 163.796875 -54.3125 C 179.472656 -53.945312 192.445312 -53.71875 202.71875 -53.625 C 212.988281 -53.53125 220.550781 -53.296875 225.40625 -52.921875 L 228.203125 -30.515625 Z M 87.921875 -79.234375 L 91.84375 -104.4375 L 94.640625 -104.4375 C 97.816406 -104.4375 101.96875 -104.390625 107.09375 -104.296875 C 112.226562 -104.203125 117.828125 -104.0625 123.890625 -103.875 C 129.960938 -103.6875 136.3125 -103.453125 142.9375 -103.171875 C 149.5625 -102.898438 155.90625 -102.625 161.96875 -102.34375 C 168.039062 -102.0625 173.550781 -101.78125 178.5 -101.5 C 183.445312 -101.21875 187.414062 -100.984375 190.40625 -100.796875 C 190.03125 -89.222656 186.710938 -80.539062 180.453125 -74.75 C 174.203125 -68.96875 163.703125 -66.078125 148.953125 -66.078125 C 147.835938 -66.078125 146.71875 -66.078125 145.59375 -66.078125 C 144.476562 -66.078125 143.265625 -66.171875 141.953125 -66.359375 C 142.328125 -67.484375 142.703125 -68.695312 143.078125 -70 C 143.640625 -72.238281 143.921875 -74.570312 143.921875 -77 Z M 232.6875 -203.5625 C 232.3125 -202.25 231.421875 -200.238281 230.015625 -197.53125 C 228.617188 -194.832031 227.03125 -191.988281 225.25 -189 C 223.476562 -186.007812 221.613281 -183.207031 219.65625 -180.59375 C 217.695312 -177.988281 215.972656 -176.03125 214.484375 -174.71875 C 211.117188 -171.726562 207.007812 -169.441406 202.15625 -167.859375 C 197.300781 -166.273438 192.171875 -165.484375 186.765625 -165.484375 C 179.296875 -165.484375 172.296875 -167.160156 165.765625 -170.515625 C 168.003906 -174.066406 170.425781 -178.128906 173.03125 -182.703125 C 175.644531 -187.273438 178.210938 -191.988281 180.734375 -196.84375 C 183.253906 -201.695312 185.679688 -206.457031 188.015625 -211.125 C 190.347656 -215.789062 192.265625 -219.894531 193.765625 -223.4375 Z M 44.234375 -186.765625 L 65.234375 -217.84375 C 71.773438 -214.289062 77.191406 -211.066406 81.484375 -208.171875 C 85.773438 -205.285156 89.179688 -202.488281 91.703125 -199.78125 C 94.222656 -197.070312 95.992188 -194.269531 97.015625 -191.375 C 98.046875 -188.488281 98.5625 -185.269531 98.5625 -181.71875 C 98.5625 -177.238281 97.8125 -172.945312 96.3125 -168.84375 C 94.820312 -164.738281 92.769531 -161.097656 90.15625 -157.921875 Z M 106.6875 -204.6875 L 136.078125 -226.515625 C 139.992188 -222.410156 143.164062 -218.863281 145.59375 -215.875 C 148.019531 -212.894531 149.929688 -210.238281 151.328125 -207.90625 C 152.734375 -205.570312 153.671875 -203.46875 154.140625 -201.59375 C 154.609375 -199.726562 154.84375 -197.863281 154.84375 -196 C 154.84375 -190.03125 153.113281 -184.335938 149.65625 -178.921875 C 146.207031 -173.503906 142.148438 -169.394531 137.484375 -166.59375 Z M 106.6875 -204.6875 "/></g></g></g><g fill="#307bdf" fill-opacity="1"><g transform="translate(924.901949, 897.369983)"><g><path d="M 153.4375 -106.125 C 153.0625 -97.34375 152.59375 -88.800781 152.03125 -80.5 C 151.476562 -72.195312 150.546875 -64.679688 149.234375 -57.953125 C 147.742188 -50.117188 145.269531 -43.117188 141.8125 -36.953125 C 138.363281 -30.796875 134.257812 -25.523438 129.5 -21.140625 C 124.738281 -16.753906 119.460938 -13.441406 113.671875 -11.203125 C 107.890625 -8.960938 101.828125 -7.84375 95.484375 -7.84375 C 92.304688 -7.84375 89.039062 -8.125 85.6875 -8.6875 C 87.925781 -14.09375 89.835938 -20.390625 91.421875 -27.578125 C 93.003906 -34.765625 94.304688 -42.554688 95.328125 -50.953125 C 96.359375 -59.359375 97.15625 -68.179688 97.71875 -77.421875 C 98.28125 -86.660156 98.65625 -95.851562 98.84375 -105 L 40.046875 -102.484375 L 35.84375 -136.921875 C 42.375 -136.921875 51.238281 -136.875 62.4375 -136.78125 C 73.632812 -136.6875 85.957031 -136.453125 99.40625 -136.078125 L 99.40625 -180.3125 L 150.359375 -178.921875 C 150.921875 -174.253906 151.429688 -168.09375 151.890625 -160.4375 C 152.359375 -152.78125 152.78125 -144.285156 153.15625 -134.953125 L 206.921875 -133.28125 L 207.484375 -110.3125 Z M 153.4375 -106.125 "/></g></g></g><g fill="#307bdf" fill-opacity="1"><g transform="translate(1171.299292, 897.369983)"><g><path d="M 190.125 -56 C 190.125 -51.894531 189.515625 -47.648438 188.296875 -43.265625 C 187.085938 -38.878906 185.269531 -34.816406 182.84375 -31.078125 C 180.414062 -27.347656 177.285156 -24.222656 173.453125 -21.703125 C 169.628906 -19.179688 165.195312 -17.734375 160.15625 -17.359375 C 154.375 -16.984375 148.585938 -16.65625 142.796875 -16.375 C 137.015625 -16.09375 131.226562 -15.953125 125.4375 -15.953125 C 112.75 -15.953125 101.96875 -16.375 93.09375 -17.21875 C 84.226562 -18.0625 76.851562 -19.785156 70.96875 -22.390625 C 65.09375 -25.003906 60.519531 -28.597656 57.25 -33.171875 C 53.988281 -37.753906 51.609375 -43.867188 50.109375 -51.515625 C 48.617188 -59.171875 47.6875 -68.457031 47.3125 -79.375 C 46.945312 -90.300781 46.765625 -103.320312 46.765625 -118.4375 C 46.765625 -127.207031 46.8125 -135.46875 46.90625 -143.21875 C 47 -150.96875 47.226562 -157.640625 47.59375 -163.234375 L 92.6875 -163.796875 C 92.863281 -161.367188 93 -157.398438 93.09375 -151.890625 C 93.1875 -146.390625 93.328125 -140.09375 93.515625 -133 C 93.703125 -125.90625 93.890625 -118.484375 94.078125 -110.734375 C 94.265625 -102.992188 94.453125 -95.625 94.640625 -88.625 C 94.828125 -81.625 95.015625 -75.367188 95.203125 -69.859375 C 95.390625 -64.347656 95.484375 -60.378906 95.484375 -57.953125 C 100.335938 -57.023438 106.398438 -56.375 113.671875 -56 C 120.953125 -55.625 128.703125 -55.4375 136.921875 -55.4375 C 142.148438 -55.4375 147.328125 -55.484375 152.453125 -55.578125 C 157.585938 -55.671875 162.488281 -55.8125 167.15625 -56 C 171.820312 -56.1875 176.113281 -56.421875 180.03125 -56.703125 C 183.957031 -56.984375 187.320312 -57.21875 190.125 -57.40625 Z M 184.234375 -138.3125 C 179.203125 -129.914062 174.394531 -122.359375 169.8125 -115.640625 C 165.238281 -108.921875 160.710938 -103.179688 156.234375 -98.421875 C 151.753906 -93.660156 147.085938 -89.972656 142.234375 -87.359375 C 137.378906 -84.742188 132.15625 -83.4375 126.5625 -83.4375 C 121.332031 -83.4375 116.054688 -84.648438 110.734375 -87.078125 C 105.421875 -89.503906 100.242188 -93.332031 95.203125 -98.5625 C 101.359375 -104.71875 107.097656 -110.546875 112.421875 -116.046875 C 117.742188 -121.554688 122.738281 -126.878906 127.40625 -132.015625 C 132.070312 -137.148438 136.503906 -142.238281 140.703125 -147.28125 C 144.898438 -152.320312 148.957031 -157.457031 152.875 -162.6875 Z M 175.5625 -172.203125 L 187.875 -187.3125 C 194.59375 -186.007812 199.351562 -183.816406 202.15625 -180.734375 C 204.957031 -177.660156 206.359375 -174.441406 206.359375 -171.078125 C 206.359375 -167.347656 205.003906 -164.035156 202.296875 -161.140625 C 199.585938 -158.242188 196.179688 -156.796875 192.078125 -156.796875 C 190.398438 -156.796875 188.441406 -157.265625 186.203125 -158.203125 Z M 207.203125 -172.203125 L 219.515625 -187.3125 C 226.234375 -186.007812 230.992188 -183.816406 233.796875 -180.734375 C 236.597656 -177.660156 238 -174.441406 238 -171.078125 C 238 -167.347656 236.644531 -164.035156 233.9375 -161.140625 C 231.226562 -158.242188 227.820312 -156.796875 223.71875 -156.796875 C 222.039062 -156.796875 220.082031 -157.265625 217.84375 -158.203125 Z M 207.203125 -172.203125 "/></g></g></g></svg>